<?xml version="1.0" encoding="UTF-8"?>
<svg xmlns="http://www.w3.org/2000/svg" version="1.1" viewBox="0 0 4640 6960" width="4640" height="6960">
  <metadata>{"generated_by": "katmanla.py", "layer_count": 1, "note": "Sort order is back-to-front by depth_mm."}</metadata>
  <g id="Figur_01" data-layer-name="Figur_01" data-depth-mm="0.60" data-order="1">
<g transform="translate(0.000000,6960.000000) scale(0.100000,-0.100000)"
fill="#000000" stroke="none">
<path d="M12920 63815 l0 -55 -55 0 -55 0 0 -130 c0 -109 2 -130 15 -130 9 0
15 -9 15 -25 0 -16 -6 -25 -15 -25 -11 0 -15 -11 -15 -40 l0 -40 55 0 55 0 0
-80 c0 -64 3 -80 15 -80 12 0 15 -15 15 -75 0 -60 -3 -75 -15 -75 -13 0 -15
-24 -15 -160 l0 -160 44 0 c50 0 56 -8 56 -76 0 -32 4 -44 15 -44 12 0 15 -18
15 -100 l0 -100 105 0 105 0 0 -45 c0 -33 -4 -45 -15 -45 -9 0 -15 -9 -15 -25
0 -24 3 -25 55 -25 42 0 55 3 55 15 0 13 42 15 320 15 l320 0 0 -55 0 -55 155
0 155 0 0 -50 0 -50 105 0 105 0 0 -50 c0 -38 -4 -50 -15 -50 -11 0 -15 -11
-15 -40 0 -29 4 -40 15 -40 8 0 15 -9 15 -20 0 -17 7 -20 50 -20 l50 0 0 -55
0 -55 105 0 105 0 0 25 c0 16 6 25 15 25 8 0 15 7 15 15 0 10 10 15 30 15 20
0 30 5 30 15 0 13 25 15 165 15 158 0 165 1 165 20 0 11 7 20 15 20 13 0 15
21 15 125 l0 125 50 0 50 0 0 125 0 125 35 0 c28 0 35 4 35 20 0 11 7 20 15
20 8 0 15 9 15 20 0 16 7 20 35 20 24 0 35 5 35 15 0 12 13 15 55 15 52 0 55
-1 55 -25 0 -16 -6 -25 -15 -25 -11 0 -15 -12 -15 -45 l0 -45 125 0 c104 0
125 2 125 15 0 10 10 15 30 15 l30 0 0 -70 0 -70 35 0 c24 0 35 5 35 15 0 12
19 15 110 15 91 0 110 -3 110 -15 0 -12 19 -15 110 -15 91 0 110 3 110 15 0 9
9 15 25 15 16 0 25 -6 25 -15 0 -10 10 -15 30 -15 30 0 30 -1 30 -55 l0 -55
225 0 225 0 0 -35 0 -35 100 0 100 0 0 -95 0 -95 -65 0 -65 0 0 -85 c0 -69 3
-85 15 -85 9 0 15 -9 15 -25 0 -24 -2 -25 -65 -25 l-65 0 0 -110 0 -110 -190
0 c-162 0 -190 -2 -190 -15 0 -13 -24 -15 -160 -15 l-160 0 0 -25 c0 -16 -6
-25 -15 -25 -8 0 -15 -7 -15 -15 0 -12 -13 -15 -55 -15 -42 0 -55 -3 -55 -15
0 -10 -11 -15 -35 -15 l-35 0 0 -50 0 -50 -60 0 c-47 0 -60 3 -60 15 0 9 -9
15 -25 15 -23 0 -25 3 -25 50 l0 50 -35 0 c-24 0 -35 -5 -35 -15 0 -10 -11
-15 -35 -15 l-35 0 0 50 c0 38 4 50 15 50 11 0 15 12 15 50 0 38 -4 50 -15 50
-8 0 -15 5 -15 10 0 6 -22 10 -50 10 l-50 0 0 55 0 55 -105 0 c-98 0 -105 -1
-105 -20 0 -11 -7 -20 -15 -20 -8 0 -15 -9 -15 -20 0 -17 -7 -20 -50 -20 l-50
0 0 -200 c0 -171 2 -200 15 -200 10 0 15 -10 15 -30 0 -29 1 -30 50 -30 l50 0
0 -55 0 -55 120 0 c100 0 120 -2 120 -15 0 -12 13 -15 55 -15 42 0 55 3 55 15
0 13 22 15 135 15 l135 0 0 -55 0 -55 40 0 40 0 0 -59 0 -59 65 6 65 5 0 -47
c0 -34 -4 -46 -15 -46 -9 0 -15 -9 -15 -25 0 -25 1 -25 85 -25 69 0 85 3 85
15 0 9 9 15 25 15 16 0 25 -6 25 -15 0 -10 11 -15 35 -15 24 0 35 5 35 15 0
12 14 15 70 15 56 0 70 -3 70 -15 0 -9 9 -15 25 -15 23 0 25 4 25 40 0 29 -4
40 -15 40 -10 0 -15 10 -15 30 l0 30 90 0 c73 0 90 -3 90 -15 0 -13 21 -15
130 -15 124 0 130 1 130 20 0 11 -7 23 -15 26 -10 4 -15 20 -15 50 l0 44 105
0 105 0 0 -55 0 -55 100 0 100 0 0 -55 0 -55 55 0 55 0 0 55 0 55 100 0 c93 0
100 1 100 20 0 11 7 20 15 20 8 0 15 9 15 20 0 18 7 20 55 20 l55 0 0 50 c0
38 -4 50 -15 50 -12 0 -15 18 -15 100 0 82 3 100 15 100 9 0 15 9 15 25 0 16
-6 25 -15 25 -13 0 -15 25 -15 165 l0 165 -55 0 -55 0 0 165 0 165 -50 0 -50
0 0 55 c0 42 3 55 15 55 10 0 15 10 15 30 0 20 -5 30 -15 30 -9 0 -15 9 -15
25 0 16 -6 25 -15 25 -8 0 -15 7 -15 15 0 10 -10 15 -30 15 -20 0 -30 -5 -30
-15 0 -10 -10 -15 -30 -15 -20 0 -30 5 -30 15 0 10 -10 15 -30 15 -26 0 -30 4
-30 28 0 54 -10 72 -41 72 -19 0 -29 5 -29 15 0 8 -7 15 -15 15 -10 0 -15 11
-15 35 0 24 5 35 15 35 9 0 15 9 15 25 0 16 -6 25 -15 25 -8 0 -15 9 -15 20 0
17 -7 20 -50 20 l-50 0 0 110 0 110 -105 0 -105 0 0 110 0 110 -50 0 -50 0 0
80 c0 64 3 80 15 80 8 0 15 5 15 10 0 6 23 10 50 10 47 0 50 2 50 25 0 16 -6
25 -15 25 -11 0 -15 12 -15 45 l0 45 50 0 50 0 0 55 0 55 -415 0 -415 0 0 55
0 55 -50 0 -50 0 0 55 0 55 -50 0 -50 0 0 110 0 110 -55 0 -55 0 0 55 0 55
-100 0 -100 0 0 -55 0 -55 -105 0 -105 0 0 -110 0 -110 -70 0 c-56 0 -70 3
-70 15 0 8 -9 15 -20 15 -18 0 -20 7 -20 55 l0 55 -50 0 c-27 0 -50 5 -50 10
0 6 -7 10 -15 10 -10 0 -15 10 -15 30 0 29 -1 30 -50 30 -38 0 -50 4 -50 15 0
12 -13 15 -60 15 -47 0 -60 -3 -60 -15 0 -13 -23 -15 -150 -15 l-150 0 0 -60
c0 -47 -3 -60 -15 -60 -10 0 -15 -11 -15 -35 l0 -35 -415 0 -415 0 0 -55 0
-55 -70 0 -70 0 0 165 0 165 -105 0 -105 0 0 55 0 55 -95 0 c-78 0 -95 -3 -95
-15 0 -11 -11 -15 -40 -15 -29 0 -40 4 -40 15 0 11 -12 15 -45 15 -33 0 -45
-4 -45 -15 0 -12 -13 -15 -55 -15 -42 0 -55 3 -55 15 0 12 -18 15 -105 15
l-105 0 0 -55z m620 -470 c0 -20 -5 -25 -25 -25 -20 0 -25 5 -25 25 0 20 5 25
25 25 20 0 25 -5 25 -25z"/>
<path d="M18230 62885 c0 -69 -3 -85 -15 -85 -11 0 -15 -11 -15 -40 l0 -40
110 0 c91 0 110 3 110 15 0 12 19 15 110 15 l110 0 0 110 0 110 -205 0 -205 0
0 -85z"/>
<path d="M23510 62365 l0 -55 -360 0 -360 0 0 -55 0 -55 -365 0 -365 0 0 -50
0 -50 -735 0 c-647 0 -735 2 -735 15 0 12 -13 15 -55 15 l-55 0 0 -70 c0 -56
3 -70 15 -70 12 0 15 -13 15 -55 l0 -55 -55 0 -55 0 0 -325 0 -325 -50 0 -50
0 0 -165 0 -165 -50 0 -50 0 0 -110 0 -110 -55 0 -55 0 0 -110 0 -110 -50 0
-50 0 0 -180 c0 -153 -2 -180 -15 -180 -12 0 -15 -15 -15 -74 0 -40 3 -88 6
-105 6 -29 9 -31 50 -31 44 0 44 0 44 -35 0 -30 -3 -35 -24 -35 -13 0 -44 -3
-70 -6 l-46 -7 0 62 0 61 -40 0 c-22 0 -40 5 -40 10 0 6 -16 10 -35 10 -24 0
-35 -5 -35 -15 0 -11 -11 -15 -40 -15 -29 0 -40 4 -40 15 0 11 -11 15 -40 15
l-40 0 0 55 0 55 -60 0 c-47 0 -60 -3 -60 -15 0 -13 -24 -15 -155 -15 -97 0
-155 4 -155 10 0 6 -11 10 -25 10 -23 0 -25 -3 -25 -50 0 -43 -3 -50 -20 -50
-11 0 -20 -7 -20 -15 0 -8 -7 -15 -15 -15 -12 0 -15 -19 -15 -110 l0 -110 325
0 c282 0 325 -2 325 -15 0 -12 15 -15 75 -15 l75 0 0 -35 c0 -24 5 -35 15 -35
12 0 15 -19 15 -110 l0 -110 50 0 50 0 0 -55 0 -55 105 0 105 0 0 -55 0 -55
155 0 155 0 0 -55 0 -55 50 0 50 0 0 -55 0 -55 50 0 50 0 0 -55 0 -55 35 0
c24 0 35 -5 35 -15 0 -9 9 -15 25 -15 16 0 25 6 25 15 0 11 12 15 45 15 l45 0
0 -55 0 -55 55 0 55 0 0 -50 0 -50 50 0 50 0 0 -55 0 -55 50 0 50 0 0 -55 0
-55 55 0 55 0 0 -55 0 -55 50 0 50 0 0 -55 0 -55 50 0 50 0 0 -110 0 -110 55
0 55 0 0 -105 0 -105 50 0 50 0 0 -765 0 -765 -50 0 -50 0 0 -105 0 -105 -55
0 -55 0 0 -55 0 -55 -50 0 -50 0 0 -55 0 -55 -50 0 -50 0 0 -55 0 -55 -105 0
-105 0 0 -55 0 -55 -1190 0 -1190 0 0 -30 c0 -20 -5 -30 -15 -30 -8 0 -15 -4
-15 -10 0 -6 -77 -10 -210 -10 -180 0 -210 -2 -210 -15 0 -13 -28 -15 -190
-15 l-190 0 0 -55 0 -55 -85 0 c-69 0 -85 3 -85 15 0 12 -15 15 -75 15 -60 0
-75 -3 -75 -15 0 -11 -12 -15 -50 -15 -38 0 -50 4 -50 15 0 10 -10 15 -30 15
-20 0 -30 -5 -30 -15 0 -11 -11 -15 -40 -15 -29 0 -40 4 -40 15 0 11 -11 15
-40 15 -29 0 -40 -4 -40 -15 0 -13 -21 -15 -130 -15 -109 0 -130 2 -130 15 0
10 -10 15 -30 15 -30 0 -30 -1 -30 -55 l0 -55 -40 0 c-29 0 -40 -4 -40 -15 0
-10 -11 -15 -35 -15 -24 0 -35 5 -35 15 0 13 -22 15 -140 15 -118 0 -140 -2
-140 -15 0 -10 -10 -15 -30 -15 -16 0 -30 5 -30 10 0 6 -7 10 -15 10 -10 0
-15 -10 -15 -30 0 -20 5 -30 15 -30 10 0 15 -10 15 -30 l0 -30 -135 0 c-113 0
-135 2 -135 15 0 10 -10 15 -30 15 -20 0 -30 -5 -30 -15 0 -8 5 -15 10 -15 6
0 10 -25 10 -55 0 -52 -1 -55 -25 -55 -16 0 -25 6 -25 15 0 9 -9 15 -25 15
-16 0 -25 -6 -25 -15 0 -9 -9 -15 -25 -15 -16 0 -25 6 -25 15 0 10 -11 15 -35
15 -33 0 -35 -2 -35 -35 0 -19 -4 -35 -10 -35 -5 0 -10 -9 -10 -20 0 -17 -7
-20 -50 -20 -43 0 -50 -3 -50 -20 0 -11 7 -20 15 -20 11 0 15 -12 15 -50 l0
-50 -105 0 c-87 0 -105 3 -105 15 0 8 -7 15 -15 15 -8 0 -15 -7 -15 -15 0 -8
7 -15 15 -15 12 0 15 -13 15 -55 l0 -55 -105 0 -105 0 0 -55 0 -55 -50 0 -50
0 0 -55 0 -55 -50 0 -50 0 0 -55 0 -55 -105 0 -105 0 0 -50 0 -50 -55 0 -55 0
0 -110 0 -110 -50 0 c-49 0 -50 -1 -50 -30 0 -20 -5 -30 -15 -30 -9 0 -15 -9
-15 -25 0 -22 -4 -25 -35 -25 l-35 0 0 -110 0 -110 -55 0 c-54 0 -55 0 -55
-30 0 -20 -5 -30 -15 -30 -8 0 -15 -4 -15 -10 0 -5 -11 -10 -25 -10 -16 0 -25
-6 -25 -15 0 -8 -4 -15 -10 -15 -6 0 -10 -37 -10 -90 l0 -90 -35 0 c-24 0 -35
-5 -35 -15 0 -8 -7 -15 -15 -15 -12 0 -15 -13 -15 -55 l0 -55 -55 0 -55 0 0
-110 0 -110 -50 0 -50 0 0 -110 0 -110 -50 0 -50 0 0 -105 0 -105 -55 0 -55 0
0 -165 0 -165 -50 0 -50 0 0 -165 0 -165 -50 0 -50 0 0 -105 0 -105 -55 0 -55
0 0 -165 0 -165 -50 0 -50 0 0 -165 0 -165 -55 0 -55 0 0 -160 0 -160 -50 0
-50 0 0 -220 0 -220 -50 0 -50 0 0 -215 0 -215 -55 0 -55 0 0 -220 0 -220 -50
0 -50 0 0 -325 0 -325 -50 0 -50 0 0 -220 0 -220 -55 0 -55 0 0 -215 0 -215
-50 0 -50 0 0 -165 0 -165 -50 0 -50 0 0 -160 0 -160 -55 0 -55 0 0 -165 0
-165 -50 0 -50 0 0 -215 0 -215 -50 0 -50 0 0 -220 0 -220 -55 0 -55 0 0 -215
0 -215 -50 0 -50 0 0 -275 0 -275 -55 0 -55 0 0 -380 0 -380 -50 0 -50 0 0
-325 0 -325 -50 0 -50 0 0 -220 0 -220 -55 0 -55 0 0 -215 0 -215 -50 0 -50 0
0 -380 0 -380 -50 0 -50 0 0 -380 0 -380 -55 0 -55 0 0 -275 0 -275 -50 0 -50
0 0 -325 0 -325 -45 0 c-33 0 -45 4 -45 15 0 8 -9 15 -20 15 -13 0 -20 -7 -20
-20 0 -11 7 -20 15 -20 13 0 15 -285 15 -2505 0 -2220 -2 -2505 -15 -2505 -10
0 -15 -11 -15 -35 0 -24 5 -35 15 -35 12 0 15 -19 15 -110 0 -91 -3 -110 -15
-110 -11 0 -15 -12 -15 -50 0 -38 4 -50 15 -50 12 0 15 -13 15 -60 0 -47 -3
-60 -15 -60 -12 0 -15 -13 -15 -60 0 -47 3 -60 15 -60 13 0 15 -26 15 -170 0
-144 -2 -170 -15 -170 -12 0 -15 -16 -15 -80 0 -64 3 -80 15 -80 13 0 15 -22
15 -135 l0 -135 50 0 50 0 0 -325 0 -325 50 0 50 0 0 -220 0 -220 55 0 55 0 0
-215 0 -215 50 0 50 0 0 -212 c0 -117 3 -223 6 -235 5 -19 13 -23 50 -23 l44
0 0 -200 0 -200 55 0 55 0 0 -220 0 -220 50 0 50 0 0 -595 0 -595 -50 0 -50 0
0 -150 c0 -127 -2 -150 -15 -150 -8 0 -15 -7 -15 -15 0 -11 -11 -15 -40 -15
l-40 0 0 -55 0 -55 -50 0 -50 0 0 -80 c0 -64 -3 -80 -15 -80 -8 0 -17 -11 -21
-25 -5 -19 -13 -25 -35 -25 -28 0 -29 -1 -29 -55 0 -54 0 -55 -30 -55 -20 0
-30 5 -30 15 0 9 -9 15 -25 15 -24 0 -25 -2 -25 -70 l0 -70 -50 0 -50 0 0
-110 0 -110 -50 0 -50 0 0 -55 0 -55 -55 0 -55 0 0 -55 0 -55 -50 0 -50 0 0
-55 0 -55 -50 0 -50 0 0 -105 0 -105 -55 0 -55 0 0 -55 0 -55 -50 0 -50 0 0
-55 0 -55 -55 0 -55 0 0 -55 0 -55 -50 0 -50 0 0 -110 0 -110 -50 0 -50 0 0
-55 0 -55 -55 0 -55 0 0 -50 0 -50 -50 0 -50 0 0 -110 0 -110 -50 0 -50 0 0
-55 0 -55 -55 0 -55 0 0 -55 0 -55 -50 0 -50 0 0 -110 0 -110 -50 0 -50 0 0
-55 0 -55 -55 0 -55 0 0 -50 0 -50 -50 0 -50 0 0 -110 0 -110 -50 0 -50 0 0
-55 0 -55 -55 0 -55 0 0 -110 0 -110 -50 0 -50 0 0 -110 0 -110 -55 0 -55 0 0
-105 0 -105 -50 0 -50 0 0 -165 0 -165 -50 0 -50 0 0 -215 0 -215 -55 0 -55 0
0 -110 0 -110 55 0 55 0 0 -55 0 -55 50 0 50 0 0 -55 c0 -30 -4 -55 -10 -55
-5 0 -10 -7 -10 -15 0 -10 11 -15 35 -15 24 0 35 5 35 15 0 9 9 15 25 15 24 0
25 -3 25 -55 0 -54 0 -55 30 -55 20 0 30 -5 30 -15 0 -8 5 -15 10 -15 6 0 10
-7 10 -15 0 -8 7 -15 15 -15 9 0 15 -9 15 -25 l0 -25 775 0 775 0 0 -55 0 -55
155 0 155 0 0 -50 0 -50 105 0 105 0 0 -55 0 -55 50 0 50 0 0 -275 0 -275 -50
0 -50 0 0 -105 0 -105 -50 0 -50 0 0 -110 0 -110 -55 0 -55 0 0 -55 0 -55 -50
0 -50 0 0 -75 c0 -60 -3 -75 -15 -75 -8 0 -15 -9 -15 -20 0 -13 -7 -20 -20
-20 -11 0 -20 -7 -20 -15 0 -8 -7 -15 -15 -15 -8 0 -15 -9 -15 -20 0 -11 -7
-20 -15 -20 -8 0 -15 -9 -15 -20 0 -13 -7 -20 -20 -20 -11 0 -20 -7 -20 -15 0
-8 -9 -15 -20 -15 -13 0 -20 -7 -20 -20 0 -11 -7 -20 -15 -20 -12 0 -15 -14
-15 -70 l0 -70 -50 0 -50 0 0 -45 c0 -33 4 -45 15 -45 12 0 15 -16 15 -80 l0
-80 -55 0 -55 0 0 -55 0 -55 -50 0 c-38 0 -50 4 -50 15 0 8 -7 15 -15 15 -8 0
-15 -9 -15 -20 0 -11 7 -20 15 -20 11 0 15 -12 15 -50 l0 -50 -40 0 c-29 0
-40 4 -40 15 0 9 -9 15 -25 15 -16 0 -25 -6 -25 -15 0 -8 7 -15 15 -15 12 0
15 -19 15 -110 l0 -110 -55 0 c-42 0 -55 -3 -55 -15 0 -8 -7 -15 -15 -15 -9 0
-15 -9 -15 -25 0 -16 6 -25 15 -25 12 0 15 -14 15 -65 l0 -65 -50 0 -50 0 0
-110 0 -110 -50 0 -50 0 0 -55 0 -55 -55 0 -55 0 0 -110 0 -110 -50 0 -50 0 0
-110 0 -110 -50 0 -50 0 0 -105 0 -105 -55 0 -55 0 0 -110 0 -110 -50 0 -50 0
0 -110 0 -110 -50 0 -50 0 0 -110 0 -110 -55 0 -55 0 0 -105 0 -105 -50 0 -50
0 0 -110 0 -110 -55 0 -55 0 0 -165 0 -165 -50 0 -50 0 0 -105 0 -105 -50 0
-50 0 0 -165 0 -165 -55 0 -55 0 0 -110 0 -110 -50 0 -50 0 0 -160 0 -160 -50
0 -50 0 0 -165 0 -165 -50 0 c-38 0 -50 4 -50 15 0 8 -9 15 -20 15 -15 0 -20
-7 -20 -25 0 -16 6 -25 15 -25 13 0 15 -21 15 -125 0 -104 -2 -125 -15 -125
-8 0 -15 -7 -15 -15 0 -10 -10 -15 -29 -15 -38 0 -41 -12 -41 -197 l0 -153
-50 0 -50 0 0 -165 0 -165 -55 0 -55 0 0 -215 0 -215 -50 0 -50 0 0 -150 0
-150 -40 0 c-29 0 -40 -4 -40 -15 0 -8 -4 -15 -10 -15 -6 0 -10 -62 -10 -165
l0 -165 -55 0 -55 0 0 -140 0 -139 -35 -7 c-20 -3 -35 -12 -35 -20 0 -8 -7
-14 -15 -14 -13 0 -15 -31 -15 -220 l0 -220 -55 0 -55 0 0 -110 0 -110 -205 0
-205 0 0 -195 c0 -167 -2 -195 -15 -195 -13 0 -15 -25 -15 -165 0 -140 2 -165
15 -165 13 0 15 -336 15 -2960 0 -2624 -2 -2960 -15 -2960 -10 0 -15 -10 -15
-30 0 -20 5 -30 15 -30 12 0 15 -19 15 -110 0 -91 -3 -110 -15 -110 -12 0 -15
-18 -15 -105 0 -87 3 -105 15 -105 13 0 15 -39 15 -295 l0 -295 75 0 c60 0 75
-3 75 -15 0 -11 11 -15 40 -15 29 0 40 4 40 15 0 12 17 15 90 15 l90 0 0 -160
0 -160 55 0 55 0 0 -165 0 -165 50 0 50 0 0 -165 0 -165 40 0 40 0 0 -40 c0
-29 4 -40 15 -40 13 0 15 -20 15 -120 l0 -120 50 0 50 0 0 -165 0 -165 50 0
50 0 0 -110 0 -110 55 0 55 0 0 -130 c0 -109 -2 -130 -15 -130 -11 0 -15 -12
-15 -45 0 -43 1 -45 30 -45 20 0 30 5 30 15 0 10 11 15 35 15 33 0 35 -2 35
-35 0 -24 -5 -35 -15 -35 -12 0 -15 -14 -15 -70 0 -56 3 -70 15 -70 8 0 15 -9
15 -20 0 -16 7 -20 35 -20 l35 0 0 -55 c0 -42 3 -55 15 -55 11 0 15 -11 15
-40 0 -36 3 -40 25 -40 16 0 25 -6 25 -15 0 -8 7 -15 15 -15 9 0 15 -9 15 -25
0 -16 6 -25 15 -25 12 0 15 -14 15 -65 l0 -65 50 0 50 0 0 -110 0 -110 50 0
50 0 0 -55 0 -55 55 0 55 0 0 -110 0 -110 50 0 50 0 0 -55 0 -55 50 0 50 0 0
-55 0 -55 55 0 55 0 0 -105 0 -105 50 0 50 0 0 -55 0 -55 55 0 55 0 0 -55 0
-55 50 0 50 0 0 -55 0 -55 50 0 50 0 0 -55 0 -55 105 0 105 0 0 -55 0 -55 50
0 50 0 0 -55 0 -55 55 0 55 0 0 -50 0 -50 100 0 100 0 0 -55 0 -55 55 0 55 0
0 -55 0 -55 100 0 100 0 0 -55 0 -55 55 0 55 0 0 -55 0 -55 105 0 105 0 0 -55
0 -55 100 0 100 0 0 -55 0 -55 105 0 105 0 0 -55 0 -55 105 0 105 0 0 -50 0
-50 155 0 155 0 0 -55 0 -55 50 0 50 0 0 -220 0 -220 1500 0 1500 0 0 220 0
220 55 0 55 0 0 55 0 55 155 0 155 0 0 50 0 50 105 0 105 0 0 55 0 55 155 0
155 0 0 55 0 55 100 0 100 0 0 55 0 55 105 0 105 0 0 55 0 55 105 0 105 0 0
55 0 55 50 0 50 0 0 55 0 55 105 0 105 0 0 55 0 55 50 0 50 0 0 50 0 50 105 0
105 0 0 55 0 55 50 0 50 0 0 55 0 55 105 0 105 0 0 55 0 55 50 0 50 0 0 55 0
55 55 0 55 0 0 55 0 55 50 0 50 0 0 55 0 55 50 0 50 0 0 55 0 55 55 0 55 0 0
50 0 50 50 0 50 0 0 55 0 55 55 0 55 0 0 55 0 55 50 0 50 0 0 55 0 55 50 0 50
0 0 55 0 55 55 0 55 0 0 55 0 55 50 0 50 0 0 55 0 55 50 0 50 0 0 55 0 55 55
0 55 0 0 50 0 50 50 0 50 0 0 110 0 110 50 0 50 0 0 55 0 55 55 0 55 0 0 55 0
55 50 0 50 0 0 110 0 110 50 0 50 0 0 55 0 55 55 0 55 0 0 105 0 105 50 0 50
0 0 55 0 55 55 0 55 0 0 110 0 110 50 0 50 0 0 110 0 110 50 0 50 0 0 55 0 55
55 0 55 0 0 105 0 105 50 0 50 0 0 110 0 110 50 0 50 0 0 55 0 55 55 0 55 0 0
110 0 110 50 0 50 0 0 105 0 105 50 0 50 0 0 165 0 165 55 0 55 0 0 110 0 110
50 0 50 0 0 110 0 110 50 0 50 0 0 105 0 105 55 0 55 0 0 165 0 165 50 0 50 0
0 110 0 110 55 0 55 0 0 105 0 105 50 0 50 0 0 165 0 165 50 0 50 0 0 220 0
220 55 0 55 0 0 160 0 160 50 0 50 0 0 165 0 165 50 0 50 0 0 215 0 215 55 0
55 0 0 275 0 275 50 0 50 0 0 215 0 215 50 0 50 0 0 275 0 275 55 0 55 0 0
380 0 380 50 0 50 0 0 325 0 325 50 0 50 0 0 435 0 435 55 0 55 0 0 380 0 380
50 0 50 0 0 270 0 270 55 0 55 0 0 165 0 165 50 0 50 0 0 165 0 165 105 0 105
0 0 55 0 55 360 0 360 0 0 50 0 50 775 0 775 0 0 55 0 55 105 0 105 0 0 55 0
55 105 0 105 0 0 30 c0 20 5 30 15 30 9 0 15 9 15 25 0 25 1 25 90 25 l90 0 0
55 0 55 100 0 100 0 0 55 0 55 55 0 55 0 0 55 0 55 50 0 50 0 0 35 c0 25 4 35
16 35 9 0 18 9 21 20 4 14 14 20 34 20 28 0 29 2 29 50 l0 50 55 0 c42 0 55 3
55 15 0 8 7 15 15 15 9 0 15 9 15 25 0 20 5 25 25 25 15 0 25 6 25 15 0 8 11
17 25 21 21 5 25 12 25 40 0 30 3 34 28 34 62 0 72 8 72 61 0 37 -4 49 -15 49
-12 0 -15 14 -15 70 l0 70 40 0 c29 0 40 -4 40 -15 0 -10 10 -15 30 -15 30 0
30 1 30 55 l0 55 36 0 c56 0 64 15 64 124 0 79 -3 96 -15 96 -12 0 -15 14 -15
65 l0 65 45 0 c33 0 45 -4 45 -15 0 -9 9 -15 25 -15 25 0 25 1 25 85 0 69 -3
85 -15 85 -13 0 -15 21 -15 125 0 104 2 125 15 125 8 0 15 5 15 10 0 6 18 10
40 10 l41 0 -7 60 c-6 52 -4 60 10 60 10 0 16 9 16 25 0 16 -6 25 -15 25 -10
0 -15 11 -15 35 0 24 5 35 15 35 11 0 15 12 15 50 0 38 -4 50 -15 50 -9 0 -15
9 -15 25 0 16 6 25 15 25 11 0 15 12 15 45 0 33 -4 45 -15 45 -12 0 -15 19
-15 110 0 91 3 110 15 110 12 0 15 13 15 60 0 47 -3 60 -15 60 -12 0 -15 17
-15 95 l0 95 50 0 50 0 0 650 0 650 55 0 55 0 0 220 0 220 50 0 50 0 0 55 0
55 50 0 50 0 0 55 0 55 55 0 55 0 0 50 0 50 100 0 100 0 0 55 0 55 155 0 155
0 0 55 0 55 365 0 365 0 0 55 0 55 725 0 725 0 0 55 0 55 520 0 520 0 0 55 0
55 620 0 620 0 0 -55 0 -55 205 0 205 0 0 55 0 55 105 0 105 0 0 55 0 55 50 0
50 0 0 55 0 55 105 0 105 0 0 50 0 50 50 0 50 0 0 55 0 55 55 0 55 0 0 55 0
55 50 0 50 0 0 55 0 55 50 0 50 0 0 55 0 55 105 0 105 0 0 55 0 55 50 0 50 0
0 55 0 55 55 0 55 0 0 56 0 57 65 -6 65 -6 0 54 0 55 40 0 40 0 0 55 0 55 50
0 50 0 0 55 0 55 50 0 50 0 0 55 0 55 55 0 55 0 0 55 0 55 100 0 100 0 0 55 0
55 55 0 55 0 0 55 0 55 50 0 50 0 0 55 0 55 50 0 50 0 0 50 0 50 55 0 55 0 0
55 0 55 50 0 50 0 0 65 c0 51 3 65 15 65 11 0 15 12 15 45 0 45 0 45 35 45
l35 0 0 55 0 55 55 0 55 0 0 110 0 110 50 0 50 0 0 55 0 55 40 0 c29 0 40 -4
40 -15 0 -9 9 -15 25 -15 20 0 25 5 25 25 0 14 -4 25 -10 25 -6 0 -10 38 -10
95 l0 95 50 0 50 0 0 55 0 55 50 0 50 0 0 55 0 55 55 0 55 0 0 110 0 110 50 0
50 0 0 55 0 55 50 0 50 0 0 55 0 55 55 0 55 0 0 105 0 105 50 0 50 0 0 55 0
55 50 0 50 0 0 110 0 110 55 0 55 0 0 110 0 110 50 0 50 0 0 105 0 105 50 0
50 0 0 110 0 110 55 0 55 0 0 110 0 110 50 0 50 0 0 110 0 110 55 0 55 0 0
105 0 105 50 0 50 0 0 55 0 55 50 0 50 0 0 110 0 110 55 0 55 0 0 110 0 110
50 0 50 0 0 160 0 160 50 0 50 0 0 165 0 165 55 0 55 0 0 600 0 600 -55 0 -55
0 0 595 0 595 55 0 55 0 0 165 0 165 50 0 50 0 0 165 0 165 50 0 50 0 0 50 0
50 55 0 55 0 0 110 0 110 100 0 100 0 0 55 0 55 105 0 105 0 0 55 0 55 55 0
55 0 0 55 0 55 100 0 100 0 0 55 0 55 105 0 105 0 0 55 0 55 105 0 105 0 0 50
0 50 100 0 100 0 0 55 0 55 55 0 55 0 0 55 0 55 50 0 50 0 0 55 0 55 105 0
105 0 0 55 0 55 50 0 50 0 0 55 0 55 55 0 55 0 0 110 0 110 50 0 50 0 0 50 0
50 50 0 50 0 0 55 0 55 55 0 55 0 0 55 0 55 50 0 50 0 0 110 0 110 50 0 50 0
0 55 0 55 55 0 55 0 0 55 0 55 50 0 50 0 0 110 0 110 50 0 50 0 0 105 0 105
55 0 55 0 0 110 0 110 50 0 50 0 0 55 0 55 50 0 50 0 0 110 0 110 55 0 55 0 0
105 0 105 50 0 50 0 0 110 0 110 55 0 55 0 0 110 0 110 50 0 50 0 0 165 0 165
50 0 50 0 0 160 0 160 55 0 55 0 0 165 0 165 50 0 50 0 0 215 0 215 50 0 50 0
0 220 0 220 55 0 55 0 0 215 0 215 50 0 50 0 0 330 0 330 50 0 50 0 0 160 0
160 210 0 210 0 0 1850 0 1850 -210 0 -210 0 0 110 0 110 -50 0 -50 0 0 160 0
160 -50 0 -50 0 0 165 0 165 -55 0 -55 0 0 110 0 110 -50 0 -50 0 0 55 0 55
-50 0 -50 0 0 105 0 105 -55 0 -55 0 0 55 0 55 -50 0 -50 0 0 55 0 55 -50 0
-50 0 0 55 0 55 -55 0 -55 0 0 55 0 55 -50 0 -50 0 0 55 0 55 -105 0 -105 0 0
55 0 55 -50 0 -50 0 0 50 0 50 -55 0 -55 0 0 55 0 55 -50 0 -50 0 0 55 0 55
-50 0 -50 0 0 55 0 55 -55 0 -55 0 0 55 0 55 -50 0 -50 0 0 55 0 55 -50 0 -50
0 0 55 0 55 -55 0 -55 0 0 55 0 55 -50 0 -50 0 0 105 0 105 -50 0 -50 0 0 165
0 165 -55 0 -55 0 0 110 0 110 -50 0 -50 0 0 105 0 105 -55 0 -55 0 0 110 0
110 -50 0 -50 0 0 110 0 110 -50 0 -50 0 0 110 0 110 -55 0 -55 0 0 105 0 105
-50 0 -50 0 0 110 0 110 -50 0 -50 0 0 110 0 110 -55 0 -55 0 0 110 0 110 -50
0 -50 0 0 105 0 105 -50 0 -50 0 0 110 0 110 -55 0 -55 0 0 110 0 110 -50 0
-50 0 0 270 0 270 50 0 50 0 0 110 0 110 55 0 55 0 0 110 0 110 50 0 50 0 0
110 0 110 50 0 50 0 0 160 0 160 55 0 55 0 0 110 0 110 50 0 50 0 0 55 0 55
50 0 50 0 0 110 0 110 55 0 55 0 0 50 0 50 50 0 50 0 0 110 0 110 50 0 50 0 0
55 c0 42 3 55 15 55 10 0 15 10 15 30 0 20 -5 30 -15 30 -9 0 -15 9 -15 25 0
24 3 25 55 25 l55 0 0 110 0 110 50 0 50 0 0 55 0 55 55 0 55 0 0 105 0 105
50 0 50 0 0 110 0 110 50 0 50 0 0 55 0 55 55 0 55 0 0 55 0 55 50 0 50 0 0
55 0 55 50 0 50 0 0 55 0 55 55 0 55 0 0 50 0 50 50 0 50 0 0 55 0 55 50 0 50
0 0 110 0 110 55 0 55 0 0 110 0 110 50 0 50 0 0 105 0 105 50 0 50 0 0 220 0
220 -50 0 -50 0 0 55 0 55 -50 0 -50 0 0 110 0 110 -55 0 -55 0 0 50 0 50 -50
0 -50 0 0 55 0 55 -50 0 -50 0 0 55 0 55 -55 0 -55 0 0 55 0 55 -100 0 -100 0
0 55 0 55 -55 0 -55 0 0 55 0 55 -50 0 -50 0 0 55 0 55 -50 0 -50 0 0 55 0 55
-55 0 -55 0 0 50 0 50 -50 0 -50 0 0 55 0 55 -105 0 -105 0 0 55 0 55 -50 0
-50 0 0 55 0 55 -105 0 -105 0 0 55 0 55 -105 0 -105 0 0 55 0 55 -100 0 -100
0 0 55 0 55 -55 0 -55 0 0 55 0 55 -155 0 -155 0 0 50 0 50 -50 0 -50 0 0 55
0 55 -105 0 -105 0 0 55 0 55 -105 0 -105 0 0 55 0 55 -50 0 -50 0 0 55 0 55
-50 0 -50 0 0 55 0 55 -155 0 -155 0 0 55 0 55 -55 0 -55 0 0 55 0 55 -50 0
-50 0 0 50 0 50 -50 0 -50 0 0 55 0 55 -55 0 -55 0 0 55 0 55 -50 0 -50 0 0
220 0 220 -55 0 -55 0 0 55 0 55 -50 0 -50 0 0 50 0 50 -50 0 -50 0 0 55 0 55
-55 0 -55 0 0 55 0 55 -100 0 -100 0 0 55 0 55 -260 0 -260 0 0 -55 0 -55 -50
0 -50 0 0 55 0 55 -55 0 -55 0 0 55 0 55 -50 0 -50 0 0 55 0 55 -55 0 -55 0 0
215 0 215 -50 0 -50 0 0 275 0 275 50 0 50 0 0 55 0 55 55 0 55 0 0 50 0 50
50 0 50 0 0 55 0 55 55 0 55 0 0 55 0 55 -55 0 -55 0 0 55 0 55 -105 0 -105 0
0 55 0 55 -100 0 -100 0 0 55 0 55 -55 0 -55 0 0 55 0 55 -50 0 -50 0 0 55 0
55 -205 0 -205 0 0 -55 0 -55 -105 0 -105 0 0 -55 0 -55 -50 0 -50 0 0 -55 0
-55 -55 0 -55 0 0 -55 0 -55 -105 0 -105 0 0 55 0 55 -100 0 -100 0 0 55 0 55
-260 0 -260 0 0 55 0 55 -465 0 -465 0 0 -55 0 -55 -210 0 -210 0 0 55 0 55
-50 0 -50 0 0 55 0 55 -105 0 -105 0 0 50 0 50 -50 0 -50 0 0 55 0 55 -50 0
-50 0 0 110 0 110 -55 0 -55 0 0 55 0 55 -50 0 -50 0 0 55 0 55 -105 0 -105 0
0 55 0 55 -50 0 -50 0 0 55 0 55 -155 0 c-131 0 -155 2 -155 15 0 11 -11 15
-40 15 -33 0 -40 3 -40 20 0 11 -7 20 -15 20 -8 0 -15 7 -15 15 0 8 -9 15 -20
15 -11 0 -20 7 -20 15 0 12 -17 15 -95 15 l-95 0 0 -50 0 -50 -55 0 -55 0 0
-55 0 -55 -50 0 -50 0 0 -60 c0 -47 3 -60 15 -60 8 0 15 -4 15 -10 0 -5 11
-10 25 -10 16 0 25 -6 25 -15 0 -8 5 -15 10 -15 6 0 10 -7 10 -15 0 -8 7 -15
15 -15 9 0 15 -9 15 -25 0 -24 2 -25 65 -25 51 0 65 -3 65 -15 0 -12 15 -15
75 -15 l75 0 0 -55 c0 -42 3 -55 15 -55 12 0 15 -19 15 -110 0 -91 -3 -110
-15 -110 -9 0 -15 -9 -15 -25 0 -24 -2 -25 -70 -25 l-70 0 0 55 0 55 -55 0
-55 0 0 55 0 55 -50 0 -50 0 0 55 c0 42 -3 55 -15 55 -11 0 -15 11 -15 40 0
39 -1 40 -35 40 -24 0 -35 5 -35 15 0 12 -13 15 -55 15 -30 0 -55 5 -55 10 0
6 -7 10 -15 10 -10 0 -15 10 -15 30 l0 30 -101 0 -102 0 7 70 c6 70 6 70 -19
70 -16 0 -25 -6 -25 -15 0 -13 -28 -15 -190 -15 -162 0 -190 2 -190 15 0 13
-45 15 -345 15 l-345 0 0 30 c0 20 -5 30 -15 30 -8 0 -15 5 -15 10 0 6 -72 10
-195 10 l-195 0 0 65 0 65 -155 0 -155 0 0 55 0 55 -105 0 -105 0 0 40 0 40
-65 0 -65 0 0 55 0 55 -415 0 -415 0 0 -55 0 -55 -105 0 c-63 0 -105 -4 -105
-10 0 -5 -7 -10 -15 -10 -10 0 -15 -10 -15 -30 0 -28 -3 -30 -35 -30 l-35 0 0
-70 0 -70 -205 0 -205 0 0 55 0 55 -260 0 -260 0 0 55 0 55 -50 0 -50 0 0 110
0 110 -55 0 c-52 0 -55 1 -55 25 0 16 6 25 15 25 12 0 15 13 15 60 0 47 -3 60
-15 60 -9 0 -15 9 -15 25 l0 25 -105 0 -105 0 0 55 0 55 -310 0 -310 0 0 50 0
50 -155 0 -155 0 0 55 0 55 -100 0 -100 0 0 55 0 55 -210 0 -210 0 0 -55z
m-3450 -2635 c0 -28 -3 -30 -35 -30 -32 0 -35 2 -35 30 0 28 3 30 35 30 32 0
35 -2 35 -30z"/>
<path d="M33250 20495 l0 -55 -55 0 -55 0 0 -50 0 -50 -50 0 -50 0 0 -165 0
-165 -50 0 -50 0 0 -270 0 -270 50 0 50 0 0 -55 0 -55 -50 0 -50 0 0 -330 0
-330 -55 0 -55 0 0 -325 0 -325 -50 0 -50 0 0 -160 0 -160 -55 0 -55 0 0 -220
0 -220 -50 0 -50 0 0 -705 0 -705 50 0 50 0 0 -55 0 -55 -50 0 -50 0 0 -710 0
-710 50 0 50 0 0 -380 0 -380 -50 0 -50 0 0 -595 0 -595 50 0 50 0 0 -55 0
-55 365 0 365 0 0 55 0 55 50 0 50 0 0 105 0 105 55 0 55 0 0 45 c0 33 4 45
15 45 9 0 15 9 15 25 0 16 -6 25 -15 25 -11 0 -15 12 -15 45 0 33 4 45 15 45
10 0 15 11 15 35 0 32 3 35 29 35 21 0 30 6 35 23 3 12 6 176 6 365 0 297 2
342 15 342 9 0 15 9 15 25 0 16 -6 25 -15 25 -13 0 -15 38 -15 280 l0 280 50
0 50 0 0 410 c0 358 2 410 15 410 10 0 15 10 15 30 0 20 -5 30 -15 30 -12 0
-15 18 -15 100 l0 100 -50 0 -50 0 0 220 0 220 50 0 50 0 0 1030 0 1030 -50 0
-50 0 0 870 0 870 -50 0 -50 0 0 385 0 385 -55 0 -55 0 0 105 0 105 -100 0
-100 0 0 -55z"/>
</g>
  </g>
</svg>
